<svg width="20" height="20" viewBox="0 0 20 20" fill="none" xmlns="http://www.w3.org/2000/svg">
<path fill-rule="evenodd" clip-rule="evenodd" d="M6.00978 2.5196C5.44454 2.92444 5.00751 3.50338 4.78277 4.18669L4.21835 4.187L4.21811 9.33271L3.69943 14.8919L3.69709 14.9031C3.68353 14.9611 3.6823 15.0134 3.68085 15.0896C3.66062 15.3072 3.66178 15.5218 3.68261 15.7315C3.06592 15.523 2.61155 14.9629 2.55716 14.2897L2.55169 14.1537L2.55169 4.187C2.55169 3.30837 3.23159 2.58853 4.09397 2.52491L4.21835 2.52033L6.00978 2.5196ZM8.05822 3.21895L16.2755 3.98336C17.1504 4.06435 17.8042 4.80798 17.7877 5.67255L17.7803 5.79718L16.7802 16.5207C16.6943 17.437 15.8823 18.1106 14.9659 18.0259L6.74863 17.2615C5.87373 17.1805 5.21996 16.4368 5.23648 15.5723L5.24388 15.4476L6.24395 4.72412C6.3298 3.80782 7.14181 3.13418 8.05822 3.21895ZM6.90315 15.6013L7.90408 4.87775L16.1204 5.64259L15.1204 16.366L6.90315 15.6013ZM10.1567 7.11553C10.6154 7.15373 10.9562 7.55651 10.918 8.01516L10.4829 13.2387C10.4447 13.6974 10.0419 14.0382 9.5833 14C9.12465 13.9618 8.78381 13.559 8.82201 13.1004L9.25711 7.87682C9.29531 7.41817 9.69809 7.07733 10.1567 7.11553ZM14.0888 11.2963C14.127 10.8377 13.7862 10.4349 13.3276 10.3966C12.8689 10.3584 12.4661 10.6992 12.4279 11.1578L12.3137 12.527C12.2754 12.9857 12.6162 13.3885 13.0749 13.4267C13.5335 13.465 13.9364 13.1242 13.9746 12.6655L14.0888 11.2963Z" fill="#7F8792"/>
</svg>
