<svg width="24" height="16" viewBox="0 0 24 16" fill="none" xmlns="http://www.w3.org/2000/svg">
<rect width="24" height="16" rx="8" fill="black" fill-opacity="0.6"/>
<path fill-rule="evenodd" clip-rule="evenodd" d="M12 6.6665C12.3393 6.6665 12.6337 6.79878 12.8832 7.06333C13.1327 7.32788 13.2575 7.64005 13.2575 7.99984C13.2575 8.35963 13.1327 8.67179 12.8832 8.93634C12.6337 9.2009 12.3393 9.33317 12 9.33317C11.6607 9.33317 11.3663 9.2009 11.1168 8.93634C10.8673 8.67179 10.7425 8.35963 10.7425 7.99984C10.7425 7.64005 10.8673 7.32788 11.1168 7.06333C11.3663 6.79878 11.6607 6.6665 12 6.6665ZM15.7425 6.6665C16.0818 6.6665 16.3762 6.79878 16.6257 7.06333C16.8753 7.32788 17 7.64005 17 7.99984C17 8.35963 16.8753 8.67179 16.6257 8.93634C16.3762 9.2009 16.0818 9.33317 15.7425 9.33317C15.4032 9.33317 15.1088 9.2009 14.8593 8.93634C14.6098 8.67179 14.485 8.35963 14.485 7.99984C14.485 7.64005 14.6098 7.32788 14.8593 7.06333C15.1088 6.79878 15.4032 6.6665 15.7425 6.6665ZM8.25748 6.6665C8.59681 6.6665 8.89122 6.79878 9.14072 7.06333C9.39022 7.32788 9.51497 7.64005 9.51497 7.99984C9.51497 8.35963 9.39022 8.67179 9.14072 8.93634C8.89122 9.2009 8.59681 9.33317 8.25748 9.33317C7.91816 9.33317 7.62375 9.2009 7.37425 8.93634C7.12475 8.67179 7 8.35963 7 7.99984C7 7.64005 7.12475 7.32788 7.37425 7.06333C7.62375 6.79878 7.91816 6.6665 8.25748 6.6665Z" fill="white"/>
</svg>
